<svg xmlns="http://www.w3.org/2000/svg" viewBox="0 0 420 260" role="img" aria-labelledby="title desc">
  <title id="title">Pessoa organizando o jogo</title>
  <desc id="desc">Ilustração em tons de roxo de uma pessoa organizando cartas e dados na caixa do jogo.</desc>
  <defs>
    <linearGradient id="bg" x1="0" x2="1" y1="0" y2="1"><stop offset="0" stop-color="#fff"/><stop offset="1" stop-color="#ead8ff"/></linearGradient>
    <linearGradient id="purple" x1="0" x2="1" y1="0" y2="1"><stop offset="0" stop-color="#a855f7"/><stop offset="1" stop-color="#5f22c8"/></linearGradient>
    <filter id="shadow" x="-20%" y="-20%" width="140%" height="150%"><feDropShadow dx="0" dy="12" stdDeviation="12" flood-color="#5f22c8" flood-opacity=".25"/></filter>
  </defs>
  <rect width="420" height="260" rx="28" fill="url(#bg)"/>
  <circle cx="352" cy="54" r="46" fill="#a855f7" opacity=".13"/>
  <circle cx="58" cy="210" r="56" fill="#5f22c8" opacity=".10"/>
  <g filter="url(#shadow)">
    <path d="M130 105h164l28 46v56H102v-56z" fill="#18063d" stroke="#a855f7" stroke-width="3"/>
    <path d="M130 105l-28 46h220l-28-46z" fill="#2b0b63"/>
    <path d="M134 126h156" stroke="#a855f7" stroke-width="4" stroke-linecap="round" opacity=".55"/>
    <rect x="142" y="154" width="48" height="68" rx="8" fill="url(#purple)" transform="rotate(-7 166 188)"/>
    <rect x="198" y="154" width="48" height="68" rx="8" fill="#fff" transform="rotate(5 222 188)"/>
    <text x="222" y="199" text-anchor="middle" font-family="Arial" font-size="32" font-weight="900" fill="#5f22c8">7</text>
    <g transform="translate(264 162)">
      <rect x="0" y="0" width="42" height="42" rx="10" fill="url(#purple)"/>
      <circle cx="12" cy="12" r="3" fill="#fff"/><circle cx="30" cy="12" r="3" fill="#fff"/><circle cx="21" cy="21" r="3" fill="#fff"/><circle cx="12" cy="30" r="3" fill="#fff"/><circle cx="30" cy="30" r="3" fill="#fff"/>
    </g>
  </g>
  <g>
    <circle cx="88" cy="118" r="22" fill="#fff" stroke="#7c3aed" stroke-width="3"/>
    <path d="M70 158c12-23 34-23 50 0l12 54H54z" fill="url(#purple)"/>
    <path d="M122 158l44 18" stroke="#7c3aed" stroke-width="10" stroke-linecap="round"/>
  </g>
  <path d="M332 82l9 18 20 3-15 14 4 20-18-10-18 10 4-20-15-14 20-3z" fill="#a855f7" opacity=".62"/>
</svg>
